<?xml version="1.0" encoding="utf-8"?>
<!-- Generator: Adobe Illustrator 27.1.1, SVG Export Plug-In . SVG Version: 6.00 Build 0)  -->
<svg version="1.1" id="Final" xmlns="http://www.w3.org/2000/svg" xmlns:xlink="http://www.w3.org/1999/xlink" x="0px" y="0px"
	 viewBox="0 0 512 512" style="enable-background:new 0 0 512 512;" xml:space="preserve">
<style type="text/css">
	.st0{fill:#FFC844;}
	.st1{fill-rule:evenodd;clip-rule:evenodd;fill:#0F206C;}
	.st2{fill:#0F206C;}
	.st3{fill:#DA1E48;}
	.st4{fill:none;stroke:#FFC844;stroke-width:3;stroke-miterlimit:10;}
	.st5{fill:#009FDA;}
	.st6{fill:#58AB40;}
	.st7{fill:#FFFFFF;}
	.st8{font-family:'MyriadPro-Regular';}
	.st9{font-size:57.4168px;}
</style>
<path class="st7" d="M473.7,491.52H33.92c-14.3,0-25.9-11.6-25.9-25.9V38.64c0-14.3,11.6-25.9,25.9-25.9H473.7
	c14.3,0,25.9,11.6,25.9,25.9v426.98C499.6,479.92,488.01,491.52,473.7,491.52z"/>
<rect x="355.85" y="303.61" class="st0" width="98.33" height="53.72"/>
<g>
	<path class="st1" d="M365.06,202.29c-0.18-8.87-3.59-16.85-9.91-23.38c-11.57-11.94-32-15.43-49.85-7.86
		c-5.39,2.28-5.84,4.92-15.16-0.12c-2.42-1.31-4.47-1.84-6.82-2.33c-15.09-3.11-28.76-1.22-43.86,4.58
		c-4.23,1.62-5.9,4.14-5.85,8.58c0.15,13.7,0.05,27.4,0.05,41.1c0,11.79,0.07,23.59-0.02,35.38c-0.04,4.67,1.53,6.71,6.7,6.78
		c5.07,0.06,7.25,0.06,14.04,0.06c7.8,0,7.81-0.15,7.82-7.96c0-19.42,0.03-38.85-0.04-58.27c-0.01-2.87,0.29-4.96,3.73-5.67
		c13.46-2.8,19.63,2,19.64,15.57c0.02,16.47-0.01,32.95,0.02,49.43c0.01,6.23,0.56,6.9,6.89,6.9c8.06,0,5.81,0,16.11,0
		c3.82,0,5.48-1.81,5.48-5.37c0.02-21.28,0.01-42.57,0.01-64.93c0.63-0.22,2.37-1.21,4.19-1.43c10.02-1.18,19.16-0.45,18.75,15
		c-0.13,5.19-0.02,10.4-0.01,15.61c0.01,11.45,0.07,22.89-0.01,34.33c-0.03,4.63,1.39,6.72,6.67,6.75
		c5.66,0.04,10.09,0.04,16.12-0.04c4.04-0.05,5.58-1.43,5.55-5.47C365.17,240.44,365.47,221.36,365.06,202.29z"/>
	<path class="st1" d="M182.77,206.91c-0.05-10.69-4.02-15.2-14.14-14.61c-7.13,0.41-14.31,2.01-21.18,3.96
		c-4.19,1.19-6.48,0.72-8.3-3.06c-1.75-3.64-3.74-7.17-5.77-10.67c-1.51-2.61-0.85-4.49,1.74-5.8c17.75-8.95,35.34-13.08,55.49-5.45
		c12.37,4.68,21.33,14.38,21.45,26.68c0.15,15.32,0.05,28.45,0,42.56c0.09,4.4,0.12,8.85-0.37,13.23c-0.13,1.15-0.34,2.3-0.83,3.35
		c-0.82,1.78-2.19,2.61-4.05,3.09c-7.12,1.81-14.35,3.25-21.65,4.09c-7.32,0.85-14.73,1.16-22.07,0.31
		c-4.15-0.48-8.41-1.16-12.46-2.2c-18.07-4.66-26.67-19.74-21.62-36.36c2.56-8.44,8.85-13.3,16.99-16.33
		c10.85-4.02,22.11-3.21,33.36-2.79C180.37,206.94,181.38,206.91,182.77,206.91 M172.32,225.07c-2.73,0.27-5.51,0.36-8.21,0.87
		c-4.1,0.77-7.17,3-7.28,7.32c-0.11,4.47,2.77,7.5,7.09,8.02c2.27,0.27,4.56,0.35,6.85,0.39c2.09,0.05,4.21,0.22,6.29,0.16
		c1.18-0.03,2.34-0.23,3.4-0.78c2.03-1.05,3.15-3.06,3.51-5.26c0.39-2.35,0.53-5.12-0.92-7.17c-1.27-1.79-3.13-2.74-5.27-3.07
		C176,225.28,174.13,225.12,172.32,225.07"/>
	<path class="st1" d="M29.5,199.11c0-19.24-0.01-23.68,0-42.92c0.01-6.94,0.18-7.11,6.89-7.15c5.37-0.04,10.75-0.03,16.12,0
		c6.52,0.03,6.79,0.27,6.79,6.72c0.02,26.52,0.01,38.24,0.01,64.75v9.88c0.02,6.89,0.02,6.9,6.66,6.9c13.35,0,26.69,0.15,40.04-0.08
		c4.73-0.08,6.33,1.52,6.35,6.31c0.03,6.14,0.01,10.11-0.01,15.08c-0.02,4.62-1.38,6.5-6.25,6.47c-23.57-0.18-47.15-0.17-70.72-0.01
		c-4.62,0.03-5.99-1.73-5.97-6.16C29.59,238.98,29.5,219.04,29.5,199.11"/>
	<path class="st2" d="M386.82,216.94c0,14.02,0.1,28.05-0.06,42.08c-0.05,4.5,1.62,6.02,6.12,6.03c5.61,0.02,10.99,0.02,16.62-0.01
		c4.28-0.02,6.02-1.71,6.01-5.8c-0.02-36.23,0-62.7,0.01-79.18l-28.67,17.62C386.83,203.58,386.82,211.04,386.82,216.94"/>
	<path class="st0" d="M415.52,155.18c0.05-4.5-1.62-6.01-6.13-6.03c-7.37-0.02-9.02-0.02-16.62,0.01c-4.28,0.01-6.02,1.7-6.01,5.8
		c0.02,26.35,0.02,5.34-0.01,31.7l28.77-17.7L415.52,155.18z"/>
	<path class="st2" d="M463.74,150.4l-27,16.61c0,22.47-0.23,44.13,0.3,66.55c0.38,15.95,9.7,27.39,25.24,30.51
		c5.69,1.14,11.68,1.04,17.53,0.95c6.19-0.1,7.39-1.68,7.47-8.02c0.03-2.94,0.01-5.88,0.01-8.83c-0.01-8.54-0.01-8.54-8.54-8.54
		c-9.02,0-12.98-3.83-13.12-12.87c-0.09-6.4,0.07-14.85,0.06-21.26c0-10.03,0-12.32,5.85-12.96c1.73-0.18,5.93-0.23,8.85-0.28
		c5.75-0.11,6.83-1.18,6.91-7.13c0.06-3.46,0.04-6.93,0.01-10.39c-0.06-6.32-0.64-6.89-6.78-6.97c-3.37-0.04-7.79,0.09-9.61,0
		c-3.48-0.17-4.58-1.1-5.09-5.38v-13.26L463.74,150.4z"/>
</g>
<line class="st4" x1="25.71" y1="289.49" x2="487.3" y2="289.49"/>
<text transform="matrix(1 0 0 1 212.1403 348.2303)" class="st8 st9">ROOF ERP</text>
</svg>
